<?xml version="1.0" encoding="UTF-8" standalone="no"?>
<!DOCTYPE svg PUBLIC "-//W3C//DTD SVG 20010904//EN"
"http://www.w3.org/TR/2001/REC-SVG-20010904/DTD/svg10.dtd">
<!-- Created with Inkscape ("http://www.inkscape.org/") -->
<svg
   version="1.0"
   width="1242pt"
   height="1242pt"
   viewBox="0 0 4470 4470"
   preserveAspectRatio="xMidYMid meet"
   xmlns="http://www.w3.org/2000/svg"
   xmlns:sodipodi="http://sodipodi.sourceforge.net/DTD/sodipodi-0.dtd"
   xmlns:inkscape="http://www.inkscape.org/namespaces/inkscape"
   xmlns:xlink="http://www.w3.org/1999/xlink"
   id="svg1"
   sodipodi:version="0.32"
   inkscape:version="0.36"
   sodipodi:docname="/root/Projects/Scheduler/assets/images/circle-cropped.svg"
   sodipodi:docbase="/root/Projects/Scheduler/assets/images">
  <defs
     id="defs13" />
  <sodipodi:namedview
     id="base" />
  <g
     id="layer101"
     fill="#5d46af"
     stroke="none"
     transform="matrix(0.456117,0.000000,0.000000,0.455732,1217.116,1541.264)">
    <path
       d="M1995 4464 c-311 -44 -527 -109 -768 -231 -665 -337 -1117 -973 -1211 -1701 -23 -176 -21 -452 4 -619 108 -739 560 -1358 1232 -1688 320 -157 614 -225 983 -225 269 0 473 32 706 110 733 244 1291 850 1469 1595 44 183 60 324 60 524 0 212 -19 371 -65 555 -116 461 -371 865 -740 1174 -240 201 -556 364 -858 442 -215 55 -275 62 -537 65 -135 2 -258 1 -275 -1z"
       id="path3" />
  </g>
  <g
     id="layer102"
     fill="#65ca45"
     stroke="none"
     transform="matrix(0.456117,0.000000,0.000000,0.455732,1217.116,1541.264)">
    <path
       d="M1995 4464 c-311 -44 -527 -109 -768 -231 -665 -337 -1117 -973 -1211 -1701 -23 -176 -21 -452 4 -619 108 -739 560 -1358 1232 -1688 320 -157 614 -225 983 -225 269 0 473 32 706 110 733 244 1291 850 1469 1595 44 183 60 324 60 524 0 212 -19 371 -65 555 -116 461 -371 865 -740 1174 -240 201 -556 364 -858 442 -215 55 -275 62 -537 65 -135 2 -258 1 -275 -1z m225 -2253 c0 -42 63 -142 118 -189 127 -106 192 -188 192 -240 0 -40 -31 -119 -62 -157 l-33 -39 -7 47 c-12 83 -45 136 -158 247 -143 142 -162 186 -119 280 33 73 69 100 69 51z m-83 -352 c14 -22 62 -70 107 -108 45 -37 94 -86 109 -109 51 -73 46 -150 -16 -242 l-31 -44 -11 49 c-24 103 -73 175 -171 255 -129 105 -157 208 -83 310 l31 43 19 -57 c11 -32 31 -75 46 -97z"
       id="path5" />
  </g>
  <g
     id="layer103"
     fill="#ea9d3b"
     stroke="none"
     transform="matrix(0.456117,0.000000,0.000000,0.455732,1217.116,1541.264)">
    <path
       d="M1995 4464 c-311 -44 -527 -109 -768 -231 -665 -337 -1117 -973 -1211 -1701 -23 -176 -21 -452 4 -619 108 -739 560 -1358 1232 -1688 320 -157 614 -225 983 -225 269 0 473 32 706 110 733 244 1291 850 1469 1595 44 183 60 324 60 524 0 212 -19 371 -65 555 -116 461 -371 865 -740 1174 -240 201 -556 364 -858 442 -215 55 -275 62 -537 65 -135 2 -258 1 -275 -1z m1964 -1459 c-3 -2 -210 -12 -460 -21 -550 -19 -2034 -22 -2424 -5 -143 6 -316 13 -384 15 -67 3 -126 7 -129 10 -3 3 761 6 1698 6 937 0 1701 -2 1699 -5z m-3585 -451 c26 -10 19 -20 -23 -33 -58 -17 -101 8 -48 29 27 11 50 12 71 4z m46 -108 c0 -18 -84 -76 -109 -76 -13 0 -20 9 -23 30 -4 25 -1 30 16 30 12 1 32 7 46 15 33 19 70 19 70 1z m70 -84 c0 -26 -56 -83 -74 -76 -25 10 -19 29 19 63 41 35 55 39 55 13z m1730 -151 c0 -42 63 -142 118 -189 127 -106 192 -188 192 -240 0 -40 -31 -119 -62 -157 l-33 -39 -7 47 c-12 83 -45 136 -158 247 -143 142 -162 186 -119 280 33 73 69 100 69 51z m-83 -352 c14 -22 62 -70 107 -108 45 -37 94 -86 109 -109 51 -73 46 -150 -16 -242 l-31 -44 -11 49 c-24 103 -73 175 -171 255 -129 105 -157 208 -83 310 l31 43 19 -57 c11 -32 31 -75 46 -97z"
       id="path7" />
  </g>
  <g
     id="layer104"
     fill="#fffffe"
     stroke="none"
     transform="matrix(0.447192,3.059518e-3,-3.051857e-3,0.445323,1243.877,1554.355)"
     style="opacity:0.985240;">
    <path
       d="M1995 4464 c-311 -44 -527 -109 -768 -231 -665 -337 -1117 -973 -1211 -1701 -23 -176 -21 -452 4 -619 108 -739 560 -1358 1232 -1688 320 -157 614 -225 983 -225 269 0 473 32 706 110 733 244 1291 850 1469 1595 44 183 60 324 60 524 0 212 -19 371 -65 555 -116 461 -371 865 -740 1174 -240 201 -556 364 -858 442 -215 55 -275 62 -537 65 -135 2 -258 1 -275 -1z m2004 -1458 c-2 -3 -222 -12 -489 -21 -579 -20 -2035 -24 -2435 -6 -143 6 -320 13 -394 16 -74 3 -136 7 -139 10 -3 3 775 5 1728 5 953 0 1731 -2 1729 -4z m-2103 -224 c6 -4 15 -18 19 -32 4 -14 27 -66 50 -117 55 -116 59 -129 42 -136 -21 -8 -68 4 -66 17 1 6 -1 20 -5 31 -60 155 -68 158 -114 50 -18 -42 -30 -80 -27 -85 8 -13 -29 -22 -59 -14 -14 3 -26 7 -26 9 0 1 22 49 49 106 26 57 51 118 55 136 4 17 15 34 24 36 28 7 46 7 58 -1z m459 0 c6 -4 10 -64 10 -144 l0 -137 -28 -5 c-16 -3 -34 -3 -40 2 -15 9 -17 274 -2 284 6 4 19 8 30 8 11 0 25 -4 30 -8z m546 -13 c46 -14 68 -51 70 -120 2 -65 -19 -112 -59 -133 -24 -12 -139 -21 -232 -17 -13 1 -15 23 -15 138 0 113 3 139 15 144 21 9 178 0 221 -12z m404 13 c6 -4 10 -29 10 -57 l0 -50 80 0 80 0 -1 53 c0 46 3 53 22 58 13 3 28 3 33 -1 7 -4 11 -58 11 -145 0 -146 -2 -151 -48 -142 -19 4 -22 9 -17 30 3 13 3 37 0 53 -7 29 -7 29 -81 29 l-74 0 0 -55 c0 -50 -2 -55 -25 -61 -13 -3 -29 -4 -36 -2 -15 5 -19 286 -4 292 16 7 39 6 50 -2z m587 -31 c3 -25 6 -26 71 -29 l67 -3 6 30 c5 23 13 31 35 36 60 13 58 1 -17 -147 -24 -49 -44 -97 -44 -108 0 -17 -7 -20 -50 -20 -39 0 -50 3 -50 16 0 21 -50 136 -65 149 -6 6 -16 24 -22 40 -6 17 -14 38 -18 47 -5 12 0 17 17 20 45 7 67 -3 70 -31z m-3110 17 c53 -16 78 -49 78 -105 0 -41 -2 -45 -36 -59 -20 -8 -69 -19 -109 -23 -86 -10 -95 -14 -95 -46 0 -16 7 -25 26 -29 44 -11 115 4 139 30 l22 24 21 -23 c31 -33 28 -56 -8 -64 -17 -3 -33 -10 -36 -14 -9 -15 -141 -10 -184 7 -50 20 -74 60 -64 110 8 46 44 64 148 76 85 9 102 17 93 42 -16 41 -119 44 -183 7 -32 -19 -32 -19 -43 3 -6 11 -12 27 -13 35 -7 33 164 53 244 29z m595 1 c62 -23 70 -41 72 -151 1 -56 4 -105 6 -109 5 -8 -46 -17 -63 -11 -8 2 -12 37 -12 107 0 117 -4 125 -74 132 -38 5 -48 2 -71 -21 -26 -26 -27 -30 -23 -121 3 -100 0 -106 -43 -98 l-24 4 5 108 c5 117 13 134 65 157 37 16 124 18 162 3z m-1003 -215 c26 -10 19 -20 -23 -33 -37 -11 -71 -7 -71 8 0 25 55 40 94 25z m46 -108 c0 -19 -79 -76 -106 -76 -17 0 -23 7 -26 30 -4 25 -1 30 16 30 12 1 32 7 46 15 32 19 70 19 70 1z m80 -74 c0 -11 -47 -74 -62 -83 -15 -10 -38 0 -38 16 0 17 66 75 85 75 8 0 15 -4 15 -8z m1720 -161 c0 -42 63 -142 118 -189 127 -106 192 -188 192 -240 0 -40 -31 -119 -62 -157 l-33 -39 -7 47 c-12 83 -45 136 -158 247 -143 142 -162 186 -119 280 33 73 69 100 69 51z m-128 -256 c26 -80 60 -126 152 -204 45 -37 94 -86 109 -109 51 -73 46 -150 -16 -242 l-31 -44 -11 50 c-18 82 -52 139 -122 206 -161 154 -178 180 -171 258 4 42 52 140 68 140 3 0 13 -25 22 -55z m14 -606 c104 -104 196 -189 206 -189 9 0 100 84 202 188 l186 187 107 5 c207 11 222 43 -157 -335 -182 -181 -333 -332 -335 -334 -3 -2 -56 46 -118 107 -62 62 -118 112 -125 112 -7 0 -12 -25 -14 -67 l-3 -68 -105 0 -105 0 -5 192 -5 191 -70 74 c-38 40 -81 84 -95 98 l-25 25 100 5 c175 9 149 22 361 -191z"
       id="path9" />
    <path
       d="M2740 2639 l0 -101 65 4 c86 5 100 19 100 99 0 80 -21 99 -106 99 l-59 0 0 -101z"
       id="path10" />
    <path
       d="M3920 2656 c0 -19 25 -66 36 -66 15 0 29 43 19 59 -5 10 -55 16 -55 7z"
       id="path11" />
  </g>
</svg>
